<?xml version="1.0" encoding="UTF-8"?>
<svg version="1.1" xmlns="http://www.w3.org/2000/svg" width="1563" height="1563">
<path d="M0 0 C515.79 0 1031.58 0 1563 0 C1563 515.79 1563 1031.58 1563 1563 C1047.21 1563 531.42 1563 0 1563 C0 1047.21 0 531.42 0 0 Z " fill="#FEFEFE" transform="translate(0,0)"/>
<path d="M0 0 C3.41511272 0.01864145 6.82995809 0.02050609 10.24511719 0.02026367 C12.44043203 0.02516772 14.63574506 0.03099111 16.83105469 0.0378418 C17.84036041 0.03895462 18.84966614 0.04006744 19.88955688 0.04121399 C24.61294749 0.07316525 29.08508212 0.22538918 33.72949219 1.20581055 C33.72949219 1.53581055 33.72949219 1.86581055 33.72949219 2.20581055 C32.8291626 2.44533447 32.8291626 2.44533447 31.91064453 2.68969727 C16.2964923 6.87599396 0.97997678 11.67205308 -14.31738281 16.8737793 C-18.77980986 18.38771776 -23.25325083 19.83066004 -27.76269531 21.19799805 C-89.54256405 40.01541264 -150.02315276 68.49543644 -197.27050781 113.20581055 C-198.66462891 114.5187207 -198.66462891 114.5187207 -200.08691406 115.8581543 C-207.22978131 122.77748942 -213.36319315 130.22198528 -219.27050781 138.20581055 C-219.67011719 138.74463867 -220.06972656 139.2834668 -220.48144531 139.83862305 C-246.69086493 175.5467585 -257.10539898 218.20290633 -250.58300781 262.08081055 C-240.84773693 322.74536905 -211.23644741 377.90945863 -180.27050781 430.20581055 C-153.49232882 475.47662269 -132.12524817 523.21214184 -121.58300781 574.95581055 C-121.38030273 575.94919434 -121.17759766 576.94257812 -120.96875 577.96606445 C-117.92353359 593.44888012 -116.86460198 608.34025625 -116.89550781 624.08081055 C-116.8957193 625.07382172 -116.89593079 626.06683289 -116.89614868 627.0899353 C-116.92875544 642.43659169 -117.56173721 657.23762382 -121.27050781 672.20581055 C-121.45774414 672.96442383 -121.64498047 673.72303711 -121.83789062 674.50463867 C-132.15072607 714.36668655 -158.44056764 746.0754191 -193.45800781 766.89331055 C-214.49857546 778.9784109 -238.25009622 786.1800104 -262.27050781 789.20581055 C-263.35199097 789.34720459 -263.35199097 789.34720459 -264.45532227 789.49145508 C-272.3102696 790.40518217 -280.18512733 790.44719354 -288.08300781 790.45581055 C-288.81050232 790.45714996 -289.53799683 790.45848938 -290.28753662 790.45986938 C-302.50941601 790.45500732 -314.25137054 789.52127402 -326.27050781 787.20581055 C-327.55828125 786.97764648 -328.84605469 786.74948242 -330.17285156 786.5144043 C-350.70722522 782.67927581 -370.26467359 776.82920674 -389.52050781 768.76831055 C-390.60992676 768.31375488 -391.6993457 767.85919922 -392.82177734 767.39086914 C-399.8785152 764.38615454 -406.60883135 761.00595641 -413.27050781 757.20581055 C-413.27050781 756.87581055 -413.27050781 756.54581055 -413.27050781 756.20581055 C-406.16117431 756.60426877 -399.09392884 757.06933453 -392.02832031 757.95953369 C-382.08319169 759.19456976 -372.28325224 759.52716998 -362.27050781 759.45581055 C-361.47235657 759.4523764 -360.67420532 759.44894226 -359.85186768 759.44540405 C-330.59169822 759.29899058 -301.0726343 756.9905101 -273.27050781 747.20581055 C-272.40006836 746.90191406 -271.52962891 746.59801758 -270.6328125 746.28491211 C-252.70863829 739.91557191 -235.58943141 731.96499426 -221.27050781 719.20581055 C-220.03300781 718.16360352 -220.03300781 718.16360352 -218.77050781 717.1003418 C-197.98052024 699.19433116 -186.01960024 673.35503968 -183.27050781 646.20581055 C-182.35048885 631.61730046 -183.32515952 617.49988389 -186.27050781 603.20581055 C-186.40440918 602.52067383 -186.53831055 601.83553711 -186.67626953 601.12963867 C-191.20203091 578.28688668 -200.02022981 557.01462119 -210.27050781 536.20581055 C-210.74472168 535.23820801 -211.21893555 534.27060547 -211.70751953 533.27368164 C-222.43329434 511.57946744 -235.41782548 491.16409492 -248.38378906 470.76049805 C-274.97747964 428.87794251 -296.98620749 387.14879347 -312.10327148 339.81640625 C-313.00031317 337.04159982 -313.94108437 334.29600814 -314.91894531 331.54956055 C-316.95394882 325.47656296 -318.07281771 319.16203113 -319.33300781 312.89331055 C-319.58888672 311.65129883 -319.84476563 310.40928711 -320.10839844 309.12963867 C-327.00105641 275.33966759 -329.18875993 240.32430863 -323.27050781 206.20581055 C-323.13660645 205.42173828 -323.00270508 204.63766602 -322.86474609 203.82983398 C-317.01619727 171.06378225 -302.78268152 140.2803375 -282.27050781 114.20581055 C-281.62122314 113.37919922 -280.97193848 112.55258789 -280.30297852 111.70092773 C-274.77580255 104.7982324 -268.85211632 98.4375506 -262.58300781 92.20581055 C-262.10250977 91.72680298 -261.62201172 91.24779541 -261.12695312 90.75427246 C-253.59392806 83.26305593 -245.89998913 76.3983601 -237.27050781 70.20581055 C-236.18323852 69.39117879 -235.09731884 68.5747429 -234.01269531 67.7565918 C-202.19971265 44.05170499 -165.31801183 27.81762669 -127.27050781 17.20581055 C-126.03220215 16.8588916 -124.79389648 16.51197266 -123.51806641 16.15454102 C-106.26288114 11.35716089 -89.04225782 7.56898241 -71.27050781 5.20581055 C-70.2750293 5.06836426 -69.27955078 4.93091797 -68.25390625 4.78930664 C-45.51556666 1.66324412 -22.95946588 -0.12980021 0 0 Z " fill="#0C64A8" transform="translate(977.2705078125,376.794189453125)"/>
<path d="M0 0 C4.7102718 2.62833166 8.40037801 6.61325601 10.8125 11.4375 C11.7985026 25.1656901 11.7985026 25.1656901 7.8125 30.4375 C2.94323271 35.51580149 -1.3947706 37.92694027 -8.4375 38.875 C-13.61122978 38.27139819 -17.85686016 36.31449849 -22.1875 33.4375 C-22.85796419 32.4107249 -22.85796419 32.4107249 -23.54197311 31.36320686 C-25.00806583 29.24363695 -25.00806583 29.24363695 -27.31657791 29.02117729 C-28.11970791 29.0609878 -28.92283791 29.1007983 -29.75030518 29.14181519 C-31.08701138 29.19652796 -31.08701138 29.19652796 -32.45072174 29.25234604 C-33.35385857 29.31344685 -34.25699539 29.37454765 -35.1875 29.4375 C-35.99446068 29.48445133 -36.80142136 29.53140266 -37.63283539 29.57977676 C-40.15264222 29.74615862 -42.66659978 29.95236515 -45.18261719 30.16845703 C-46.60864919 30.28586054 -46.60864919 30.28586054 -48.06348991 30.40563583 C-51.2041112 30.66508396 -54.34422332 30.9302462 -57.484375 31.1953125 C-59.72314094 31.38111823 -61.96194186 31.56650294 -64.20077515 31.75149536 C-68.96624468 32.14587661 -73.73151687 32.54253208 -78.49664307 32.94104004 C-91.03078879 33.9889124 -103.56619425 35.02156144 -116.1015625 36.0546875 C-117.35402142 36.15803406 -118.60648033 36.26138062 -119.89689255 36.36785889 C-141.57763967 38.15595633 -163.2634951 39.86504097 -184.955616 41.5088768 C-191.88331969 42.03391265 -198.81087164 42.56094217 -205.73828125 43.08984375 C-206.46837591 43.14558123 -207.19847057 43.2013187 -207.95068932 43.25874519 C-224.47266294 44.52209874 -240.98720668 45.87234585 -257.5 47.25 C-258.76837708 47.35550171 -260.03675415 47.46100342 -261.34356689 47.56970215 C-264.87112132 47.86372809 -268.3984933 48.15982722 -271.92578125 48.45703125 C-272.94367233 48.54215469 -273.96156342 48.62727814 -275.01029968 48.71498108 C-279.4183677 49.0896066 -283.81744195 49.49430346 -288.21337891 49.99267578 C-292.60624351 50.48437005 -296.77568906 50.50752875 -301.1875 50.4375 C-300.7537812 48.93640232 -300.31527365 47.43668823 -299.875 45.9375 C-299.63136719 45.1021875 -299.38773438 44.266875 -299.13671875 43.40625 C-298.36291961 40.98613748 -297.52532939 38.62734009 -296.62817383 36.25195312 C-296.35830154 35.53624146 -296.08842926 34.82052979 -295.81037903 34.08312988 C-295.60482895 33.54007202 -295.39927887 32.99701416 -295.1875 32.4375 C-269.08508154 29.91751611 -242.95845452 27.75874174 -216.8125 25.75 C-178.39513726 22.79815618 -139.99341663 19.6643817 -101.59228516 16.5090332 C-100.43733362 16.41414329 -99.28238209 16.31925337 -98.09243202 16.221488 C-92.66973931 15.77590165 -87.24707723 15.32995096 -81.82449341 14.88304138 C-76.95692608 14.48199512 -72.08913753 14.08371137 -67.2212677 13.68635559 C-63.95845658 13.4187119 -60.69597623 13.14720799 -57.43347168 12.87585449 C-55.19035838 12.69152774 -52.94723525 12.5073206 -50.70410156 12.32324219 C-49.67106274 12.23642811 -48.63802391 12.14961403 -47.57368088 12.06016922 C-40.42542805 11.47796777 -33.36145176 11.18077807 -26.1875 11.4375 C-26.06632812 10.8290625 -25.94515625 10.220625 -25.8203125 9.59375 C-24.50726179 5.11965129 -20.5899028 2.72382507 -16.9375 0.125 C-11.3725653 -2.83250326 -5.68735087 -2.50721002 0 0 Z " fill="#5EB1D4" transform="translate(1048.1875,522.5625)"/>
<path d="M0 0 C4.1796989 2.8497947 7.11864324 5.98092971 8.75 10.875 C9.29225459 15.54194522 9.2198456 18.95271048 7.0625 23.1875 C3.56227718 27.25532652 0.0419547 30.55201133 -5.25 31.875 C-8.40519198 31.98036819 -11.24304775 31.85756732 -14.25 30.875 C-15.07284485 30.03235596 -15.8956897 29.18971191 -16.74346924 28.3215332 C-20.31538584 25.29372986 -23.28259335 25.44000059 -27.82147598 25.70184326 C-29.2628776 25.82622772 -29.2628776 25.82622772 -30.73339844 25.953125 C-31.74880581 26.01977356 -32.76421318 26.08642212 -33.81039047 26.15509033 C-36.95949244 26.36865354 -40.1040719 26.61928415 -43.25 26.875 C-45.08748869 27.00877977 -46.92509104 27.14100993 -48.76281738 27.27148438 C-54.35078715 27.68036632 -59.93285151 28.15117228 -65.515625 28.625 C-67.63531255 28.80127432 -69.75503944 28.97707609 -71.87480164 29.15245056 C-76.39548074 29.52712095 -80.91594496 29.90424567 -85.43624878 30.28341675 C-97.62973373 31.30577308 -109.82465746 32.31077664 -122.01953125 33.31640625 C-123.28304979 33.4207303 -124.54656834 33.52505436 -125.84837532 33.63253975 C-159.65742394 36.42230563 -193.47879202 39.05130806 -227.30109692 41.67481136 C-232.0006746 42.0394679 -236.70020164 42.40477511 -241.39972878 42.77008247 C-244.57311152 43.01634497 -247.74659314 43.26129794 -250.92008972 43.50608826 C-252.88936773 43.65874105 -254.85863177 43.8115742 -256.82788086 43.96459961 C-257.77228625 44.03770827 -258.71669165 44.11081694 -259.68971539 44.18614101 C-264.60816924 44.57170559 -269.52279822 44.98459646 -274.43582153 45.43435669 C-275.45734345 45.52709397 -276.47886538 45.61983126 -277.53134251 45.71537876 C-279.45595053 45.89174143 -281.38018816 46.0722234 -283.30391598 46.25794125 C-289.64329048 46.83892378 -295.88359329 46.94786455 -302.25 46.875 C-302.25 41.265 -302.25 35.655 -302.25 29.875 C-289.78226542 28.20562634 -277.33426592 27.08540117 -264.79296875 26.140625 C-262.71288333 25.98100652 -260.63282622 25.82101885 -258.55279541 25.66069031 C-254.1408938 25.32125583 -249.72883061 24.98404316 -245.31661987 24.64865112 C-238.34169987 24.11830685 -231.36721584 23.58238403 -224.39282227 23.04516602 C-223.22686492 22.95536374 -222.06090757 22.86556147 -220.85961819 22.77303791 C-218.50492193 22.59166214 -216.15022725 22.41026599 -213.79553413 22.22884941 C-210.26426321 21.95692639 -206.73295792 21.68545343 -203.2016449 21.41407776 C-189.73217275 20.37845275 -176.26356304 19.33296955 -162.796875 18.26171875 C-162.02377865 18.20022959 -161.2506823 18.13874043 -160.45415878 18.07538795 C-152.26779997 17.42358954 -144.0820695 16.76437849 -135.89697266 16.09692383 C-132.93914601 15.85605587 -129.981296 15.61547636 -127.0234375 15.375 C-126.29099949 15.31535757 -125.55856148 15.25571514 -124.80392838 15.19426537 C-114.46452149 14.35397809 -104.122245 13.56088039 -93.77678967 12.79868221 C-85.73589845 12.20617595 -77.69620082 11.59897327 -69.65710926 10.98253727 C-64.77408428 10.60914136 -59.89073827 10.24439513 -55.00558472 9.89987183 C-50.45472331 9.57891986 -45.90597809 9.23658901 -41.35793686 8.87794495 C-39.67855826 8.74952263 -37.99853735 8.62921326 -36.31796646 8.51747131 C-34.01256269 8.36306871 -31.71113896 8.18012572 -29.40844727 7.98999023 C-28.11576431 7.89483627 -26.82308136 7.79968231 -25.4912262 7.7016449 C-21.48373855 6.67957207 -20.52230099 5.23425078 -18.25 1.875 C-12.42856267 -2.05108564 -6.50950429 -2.25328995 0 0 Z " fill="#5EB1D4" transform="translate(1044.25,568.125)"/>
<path d="M0 0 C0.6216963 4.27416207 1.02729808 8.34309506 1.01367188 12.66430664 C1.011698 13.47589737 1.00972412 14.2874881 1.00769043 15.12367249 C1.00388367 16.05245461 1.00388367 16.05245461 1 17 C-0.24305908 17.08975098 -1.48611816 17.17950195 -2.7668457 17.27197266 C-43.56702518 20.22576779 -84.34237126 23.4620951 -125.11540222 26.76629639 C-128.12986091 27.01052104 -131.14433545 27.25454934 -134.15881348 27.49853516 C-148.47502823 28.65736644 -162.79096501 29.81958367 -177.10670471 30.98426819 C-180.34385421 31.24746766 -183.58104071 31.51020763 -186.8182373 31.77282715 C-191.96198121 32.19022072 -197.10559744 32.60915678 -202.24912643 33.02919006 C-204.13715037 33.18315589 -206.02521262 33.33665279 -207.91331863 33.48960876 C-208.79807247 33.5613179 -209.68282631 33.63302704 -210.59439087 33.70690918 C-211.89785115 33.8125544 -211.89785115 33.8125544 -213.22764397 33.92033386 C-215.76897745 34.13039341 -218.30905963 34.35252578 -220.8493042 34.57531738 C-224.50526121 34.89163299 -228.15950192 35.13191255 -231.82305908 35.3416748 C-233.7331286 35.47202978 -235.64318357 35.60259823 -237.55322266 35.73339844 C-238.4409757 35.77180973 -239.32872875 35.81022102 -240.24338341 35.8497963 C-242.6405525 36.02943328 -244.71696049 36.24499928 -247 37 C-249.51018055 39.81368622 -249.51018055 39.81368622 -251 43 C-256.86025776 48.27423198 -261.13617045 49.5162727 -268.953125 49.3828125 C-274.84379198 48.64270306 -278.43665432 45.68676771 -282.375 41.4375 C-286.42663407 35.36004889 -286.89508166 30.26321469 -286 23 C-283.72950925 16.80683103 -279.49780175 13.35976774 -274 10 C-268.22287021 8.07429007 -262.1900706 8.09812381 -256.625 10.6875 C-253.88332933 12.20822787 -252.93138822 13.09738446 -251.0625 15.75 C-249.29305142 18.16499392 -249.29305142 18.16499392 -247.13850689 18.24219704 C-246.40634866 18.22186094 -245.67419043 18.20152485 -244.91984558 18.18057251 C-244.11214911 18.15993366 -243.30445263 18.13929482 -242.4722805 18.11803055 C-238.71336893 17.93857422 -234.96930212 17.68274669 -231.2199707 17.36083984 C-230.38646591 17.29232441 -229.55296112 17.22380898 -228.69419861 17.15321732 C-225.93776705 16.92584511 -223.18179275 16.69334131 -220.42578125 16.4609375 C-218.4547174 16.29758996 -216.48362181 16.13462503 -214.51249695 15.97201538 C-210.30610487 15.62446852 -206.09988797 15.27489995 -201.89379883 14.92370605 C-190.75940332 13.99442304 -179.62383005 13.07940349 -168.48828125 12.1640625 C-166.80330725 12.02540268 -166.80330725 12.02540268 -165.08429337 11.88394165 C-140.99324943 9.90253426 -116.89433532 8.03285606 -92.79142475 6.20233154 C-88.92343166 5.90856398 -85.05546094 5.61450307 -81.1875 5.3203125 C-80.44777136 5.26410233 -79.70804272 5.20789215 -78.94589806 5.14997864 C-68.81533954 4.37939658 -58.68801401 3.57682203 -48.5625 2.7421875 C-46.79253662 2.59698669 -46.79253662 2.59698669 -44.98681641 2.44885254 C-39.66763976 2.01197654 -34.34902611 1.56981475 -29.03125 1.11621094 C-19.32030242 0.30442184 -9.7529834 -0.23972669 0 0 Z " fill="#5EB1D4" transform="translate(777,994)"/>
<path d="M0 0 C0.83698386 2.45714547 1.66972424 4.91558857 2.5 7.375 C2.73847656 8.07367187 2.97695313 8.77234375 3.22265625 9.4921875 C5 14.7734375 5 14.7734375 5 17 C3.8145459 17.08451416 2.6290918 17.16902832 1.40771484 17.25610352 C-29.61472611 19.47700957 -60.61517084 21.92203053 -91.61215591 24.46984482 C-115.44335707 26.4284435 -139.27714593 28.34708651 -163.1171875 30.1953125 C-164.88405883 30.33230309 -164.88405883 30.33230309 -166.68662453 30.47206116 C-178.32712976 31.37404781 -189.96792951 32.27216974 -201.60905838 33.16607094 C-205.92619482 33.49778857 -210.24324826 33.83057853 -214.56029129 34.16350937 C-217.53093936 34.39210128 -220.50171637 34.6189595 -223.47250366 34.84573364 C-225.27765563 34.98479663 -227.08280127 35.12394182 -228.88793945 35.26318359 C-230.08172919 35.35352812 -230.08172919 35.35352812 -231.29963589 35.44569778 C-232.79302481 35.56159015 -234.28599231 35.68308693 -235.77840614 35.81092453 C-237.34715809 35.94443791 -238.91726846 36.06242684 -240.48805809 36.1693306 C-241.69819793 36.26879549 -241.69819793 36.26879549 -242.93278503 36.37026978 C-243.66049701 36.42380426 -244.38820898 36.47733875 -245.13797283 36.5324955 C-247.37952257 36.89204028 -247.37952257 36.89204028 -249.1875 39.8125 C-249.785625 40.864375 -250.38375 41.91625 -251 43 C-257.52096937 47.92399728 -262.98119701 48.8283412 -271 48 C-276.05543868 45.47228066 -280.38291177 41.69514705 -283.3125 36.8125 C-284.80388181 30.7113926 -285.09850015 25.15333358 -281.8125 19.625 C-278.44994304 14.92689224 -274.62287679 11.60653623 -269 10 C-262.92761894 9.29934065 -258.16361826 10.90755579 -253 14 C-252.40753983 14.6795726 -251.81507965 15.3591452 -251.20466614 16.05931091 C-248.44507279 18.48848266 -247.23423122 18.45795782 -243.61206055 18.31665039 C-242.01181534 18.26167892 -242.01181534 18.26167892 -240.37924194 18.20559692 C-234.64645565 17.85680768 -228.92818224 17.44051903 -223.20703125 16.93359375 C-221.85531412 16.81784749 -220.5035516 16.70263029 -219.15174866 16.58789062 C-216.23917912 16.3399224 -213.32687088 16.08914805 -210.41473389 15.83615112 C-202.37007228 15.13788621 -194.32362405 14.46055652 -186.27734375 13.78125 C-185.42706856 13.70931364 -184.57679337 13.63737728 -183.70075226 13.56326103 C-159.59249623 11.52501808 -135.47113233 9.65356736 -111.35019112 7.77270699 C-106.6826549 7.40868191 -102.01514821 7.04427961 -97.34765625 6.6796875 C-96.43787144 6.60866192 -95.52808662 6.53763634 -94.59073257 6.46445847 C-82.82601434 5.54526736 -71.06335493 4.60426919 -59.30298615 3.63098717 C-57.090603 3.44796057 -54.8781658 3.2656018 -52.66571045 3.08345032 C-46.02572873 2.53640912 -39.38625107 1.98416436 -32.74755859 1.42163086 C-21.8110831 0.50994491 -10.98389025 -0.3726117 0 0 Z " fill="#5EB1D4" transform="translate(766,951)"/>
<path d="M0 0 C4.86520529 1.65233387 8.58524179 4.40137679 11 9 C12.32558973 13.92826612 12.30675381 17.89929517 10.9375 22.8125 C7.8539117 27.88550011 3.86422078 31.42667247 -2 33 C-5.55811675 33.54740258 -7.93752414 33.71665038 -10.9921875 31.65625 C-11.69601562 31.1096875 -12.39984375 30.563125 -13.125 30 C-22.30702598 23.41286686 -37.13490478 27.37080168 -47.9375 28.3203125 C-49.58937555 28.46122394 -51.24129862 28.60157922 -52.89326477 28.74142456 C-56.41897419 29.04072823 -59.9444009 29.34309877 -63.46963501 29.64794922 C-71.99887618 30.38502675 -80.52963664 31.10419722 -89.06035805 31.82390594 C-91.01343571 31.98871173 -92.96649832 32.15369599 -94.91954613 32.31885529 C-114.37749751 33.96376194 -133.84277746 35.50178202 -153.3125 37 C-159.55605263 37.48095512 -165.79954643 37.96266871 -172.04296875 38.4453125 C-172.8270813 38.50589844 -173.61119385 38.56648437 -174.41906738 38.62890625 C-188.29847249 39.70238098 -202.17499775 40.81044398 -216.05078125 41.9296875 C-217.56326793 42.05165874 -217.56326793 42.05165874 -219.10630989 42.17609406 C-229.03328456 42.97691328 -238.96006488 43.78010674 -248.88659573 44.58640862 C-252.52847352 44.88203602 -256.17042203 45.17678571 -259.81238365 45.47137833 C-262.32875849 45.67530693 -264.84502075 45.88058663 -267.36128235 46.08590698 C-268.87252219 46.20822292 -270.38376759 46.33047036 -271.89501953 46.45263672 C-273.20165558 46.55889374 -274.50829163 46.66515076 -275.85452271 46.77462769 C-279 47 -279 47 -282 47 C-283.84330528 41.34719716 -284.52164273 35.91342656 -285 30 C-272.85490665 28.59091261 -260.70881619 27.40379064 -248.5234375 26.40625 C-246.72401184 26.2571967 -244.92459924 26.10798569 -243.12519836 25.95863342 C-238.23346525 25.55352529 -233.34143168 25.15216216 -228.44930649 24.75181961 C-225.35437502 24.49831059 -222.25952907 24.24377996 -219.16470337 23.98898315 C-174.0055121 20.27316668 -128.8313173 16.74834359 -83.65576172 13.23828125 C-82.97537429 13.18541108 -82.29498686 13.13254091 -81.59398162 13.07806861 C-74.52848443 12.52906661 -67.46294153 11.98066148 -60.39729309 11.43360901 C-59.24156107 11.34400658 -58.08582905 11.25440414 -56.89507484 11.16208649 C-54.77605181 10.99780829 -52.65700861 10.83378986 -50.53793907 10.67011261 C-44.54540915 10.2052471 -38.5558565 9.71324816 -32.56756306 9.19648647 C-29.62183696 8.97106053 -26.70383298 8.89863378 -23.75 8.9375 C-22.38101563 8.95103516 -22.38101563 8.95103516 -20.984375 8.96484375 C-20.00210938 8.98224609 -20.00210938 8.98224609 -19 9 C-18.58234375 8.07767578 -18.58234375 8.07767578 -18.15625 7.13671875 C-14.16129198 -0.24585569 -7.47624845 -0.62206073 0 0 Z " fill="#5EB1D4" transform="translate(1029,610)"/>
<path d="M0 0 C4.26342045 4.72433076 5.36847877 8.36228426 5.27734375 14.58984375 C4.64876418 20.05228876 2.08103069 24.32257688 -2 27.9375 C-7.12795423 31.46296853 -12.88897246 32.00480273 -19 31 C-22.42987726 29.13119249 -25.24670694 26.75329306 -28 24 C-35.75106336 23.42866823 -43.60810176 24.36080065 -51.32421875 25.03125 C-52.66269276 25.14416362 -54.00120534 25.25662081 -55.3397522 25.3686676 C-58.24756319 25.61263508 -61.15517429 25.85881928 -64.06265259 26.10671997 C-72.2048507 26.80028973 -80.34850046 27.47651863 -88.4921875 28.15234375 C-89.36922899 28.22522551 -90.24627048 28.29810726 -91.14988899 28.37319756 C-115.1962919 30.3688611 -139.2547451 32.20981983 -163.3125 34.0625 C-198.47906278 36.76146993 -198.47906278 36.76146993 -233.6328125 39.62109375 C-234.3592137 39.68201769 -235.08561489 39.74294163 -235.83402824 39.80571175 C-242.95764102 40.40403346 -250.08042074 41.01158534 -257.20239258 41.62915039 C-258.3132724 41.72434464 -259.42415222 41.81953888 -260.56869507 41.9176178 C-262.57100881 42.08937981 -264.57309465 42.26383567 -266.57485962 42.44187927 C-271.73969668 42.88358561 -276.81608173 43.07841284 -282 43 C-279.8141599 39.14675624 -277.32064642 35.78798217 -274.5 32.375 C-273.33984375 30.96347656 -273.33984375 30.96347656 -272.15625 29.5234375 C-268.41645422 25.14679244 -266.97625195 23.6843016 -260.98733902 23.18574142 C-260.16200542 23.13113377 -259.33667183 23.07652611 -258.48632812 23.02026367 C-257.60994564 22.95131016 -256.73356316 22.88235664 -255.83062363 22.81131363 C-252.89833162 22.58386604 -249.96497717 22.37601859 -247.03125 22.16796875 C-244.95333636 22.01051565 -242.87551781 21.85180319 -240.79779053 21.69190979 C-236.35406796 21.35249193 -231.90982485 21.02158107 -227.46496582 20.6973877 C-220.47529335 20.18753368 -213.48707891 19.65943065 -206.49902344 19.12792969 C-198.2582949 18.50217411 -190.01729571 17.88029234 -181.77585983 17.26392174 C-164.12893078 15.94327438 -146.48856418 14.54701703 -128.84985352 13.12130737 C-124.28485414 12.75244546 -119.71960496 12.38674719 -115.15429688 12.02172852 C-102.89230631 11.04080858 -90.63080509 10.05461944 -78.37103271 9.04626465 C-73.6610511 8.65909603 -68.95083551 8.27482001 -64.24060059 7.89074707 C-61.13309416 7.63591445 -58.02602139 7.37622851 -54.91894531 7.11621094 C-46.2701871 6.40438663 -37.68782657 5.70243685 -29 6 C-28.70198486 5.2069043 -28.40396973 4.41380859 -28.09692383 3.59667969 C-26.43011368 -0.34905651 -23.64263092 -1.94354754 -20 -4 C-13.03490327 -6.56608827 -5.52810265 -4.62817896 0 0 Z " fill="#5EB1D4" transform="translate(1051,486)"/>
<path d="M0 0 C3.96 7.92 3.96 7.92 8 16 C-23.83738544 18.98867537 -55.69501242 21.61146214 -87.57591248 24.08909988 C-98.85312299 24.96663907 -110.12969428 25.85237426 -121.40625 26.73828125 C-122.63881279 26.83504339 -123.87137558 26.93180553 -125.14128876 27.03149986 C-141.17018502 28.29077456 -157.1964699 29.57704939 -173.21875 30.91796875 C-174.08278191 30.99026451 -174.94681381 31.06256027 -175.8370285 31.13704681 C-183.72567101 31.79791124 -191.61380882 32.46454735 -199.50128174 33.13922787 C-201.59930215 33.31844866 -203.69740155 33.49671209 -205.79553223 33.67463684 C-208.28164742 33.88581571 -210.76758692 34.09907939 -213.2532959 34.31498718 C-214.3308313 34.40641495 -215.4083667 34.49784271 -216.51855469 34.59204102 C-217.90140656 34.71120628 -217.90140656 34.71120628 -219.31219482 34.83277893 C-222.21440227 35.01333898 -225.09292598 35.02789293 -228 35 C-228.020625 35.70125 -228.04125 36.4025 -228.0625 37.125 C-229.44594919 41.36757751 -232.46720744 43.42179573 -236 46 C-240.27184084 48.13592042 -245.38590029 47.71518546 -250 47 C-254.54666602 44.4140837 -258.09675385 40.92281938 -260 36 C-260.68073835 30.7598978 -260.65733258 26.3390108 -258.3125 21.5625 C-251.717133 14.25412035 -251.717133 14.25412035 -246.828125 13.796875 C-245.97734375 13.78140625 -245.1265625 13.7659375 -244.25 13.75 C-242.98929687 13.71132813 -242.98929687 13.71132813 -241.703125 13.671875 C-239 14 -239 14 -236.27067566 15.53364563 C-232.39779905 17.26998703 -230.16984495 17.17807422 -225.96606445 16.78979492 C-224.9336977 16.70313584 -224.9336977 16.70313584 -223.88047504 16.61472607 C-222.37777093 16.48813326 -220.8756379 16.35461403 -219.37408829 16.21499252 C-216.10329848 15.91879657 -212.82897036 15.68230781 -209.55367756 15.44196987 C-204.8823288 15.09688012 -200.21283677 14.72776774 -195.54296875 14.36328125 C-193.46012522 14.20155979 -191.3772749 14.03992568 -189.29441833 13.87837219 C-183.7400683 13.44718118 -178.18584762 13.01434572 -172.63166046 12.58106232 C-169.17436958 12.31147614 -165.71704293 12.04235325 -162.25970459 11.77337646 C-126.92788344 9.0242987 -91.59948207 6.23418576 -56.27508545 3.39133263 C-54.2669043 3.22980734 -52.25869655 3.06861274 -50.25048828 2.90742493 C-44.07758949 2.41145833 -37.90518997 1.91047506 -31.73364258 1.39794922 C-30.59248993 1.30411957 -29.45133728 1.21028992 -28.27560425 1.11361694 C-26.17630785 0.94086839 -24.07718717 0.76596256 -21.978302 0.58828735 C-14.61776425 -0.01422591 -7.3895339 -0.16987434 0 0 Z " fill="#5EB1D4" transform="translate(746,909)"/>
<path d="M0 0 C5.67507225 2.00296668 9.30675089 5.61350179 12 11 C12.37364646 16.60469691 12.20860998 20.18708503 9 25 C4.67204097 29.27025291 1.43070585 31.3347841 -4.7578125 31.30078125 C-8.58859869 30.7868953 -11.71574277 28.95657877 -15 27 C-15 26.34 -15 25.68 -15 25 C-15.66914932 25.15169647 -16.33829865 25.30339294 -17.02772522 25.45968628 C-20.52686484 26.0957759 -24.01440033 26.38684608 -27.55639648 26.64501953 C-28.30835895 26.70234379 -29.06032141 26.75966805 -29.83507061 26.8187294 C-32.34687443 27.00956643 -34.85897925 27.19611343 -37.37109375 27.3828125 C-39.16912241 27.51885162 -40.96712601 27.65522236 -42.7651062 27.79190063 C-46.62931218 28.08523683 -50.49363663 28.37693682 -54.35806274 28.6673584 C-64.68987216 29.44426309 -75.02074913 30.2334145 -85.3515625 31.0234375 C-86.41146456 31.10442184 -87.47136662 31.18540619 -88.56338692 31.2688446 C-115.79064703 33.35106303 -143.00622917 35.57338315 -170.22116756 37.80997276 C-176.71960954 38.3439078 -183.2183222 38.87448146 -189.71715641 39.40361977 C-194.73743936 39.8130614 -199.75704915 40.2300021 -204.77637577 40.65099716 C-208.20969814 40.93775518 -211.64342962 41.21938662 -215.07726097 41.49997711 C-216.68590323 41.63251199 -218.29437525 41.76713445 -219.9026432 41.90413666 C-229.97718421 42.76112709 -239.88604511 43.12791258 -250 43 C-251.98 37.72 -253.96 32.44 -256 27 C-252.78239086 25.92746362 -250.07174147 25.68403024 -246.68945312 25.4309082 C-246.04702321 25.38174255 -245.4045933 25.3325769 -244.74269581 25.28192139 C-242.58913429 25.11797229 -240.43520739 24.9594378 -238.28125 24.80078125 C-236.7436396 24.68463013 -235.20605779 24.56809999 -233.66850281 24.45121765 C-230.35641258 24.2000524 -227.04416574 23.95110807 -223.73178101 23.70385742 C-215.72315807 23.10572492 -207.71550318 22.49482807 -199.70775414 21.88512802 C-196.93631972 21.67420498 -194.16485426 21.46369324 -191.39338684 21.25320435 C-173.3212478 19.87917458 -155.25369197 18.44991568 -137.1875 17 C-136.05019377 16.90879253 -136.05019377 16.90879253 -134.88991165 16.81574249 C-110.54567606 14.86325151 -86.20373643 12.88246438 -61.86304092 10.88635254 C-59.4611478 10.68943871 -57.05923455 10.49277189 -54.65731812 10.29614258 C-50.90466338 9.98881812 -47.15209385 9.68047251 -43.39958954 9.37131691 C-41.38258761 9.20530877 -39.36551985 9.04010099 -37.34844971 8.87492371 C-34.96422095 8.67796747 -32.58036035 8.47647506 -30.19699097 8.26937866 C-28.14444222 8.09643077 -26.09026051 7.94139925 -24.03469849 7.80899048 C-23.15063324 7.74416473 -22.26656799 7.67933899 -21.35571289 7.61254883 C-20.60310684 7.56536209 -19.85050079 7.51817535 -19.0750885 7.46955872 C-15.7689568 6.72143498 -13.72465071 4.72465071 -11.375 2.375 C-8.17304444 -0.82695556 -4.24402907 -0.42836929 0 0 Z " fill="#5EB1D4" transform="translate(1010,654)"/>
<path d="M0 0 C0.69544922 0.00451172 1.39089844 0.00902344 2.10742188 0.01367188 C3.75915549 0.02506314 5.4108426 0.0429666 7.0625 0.0625 C6.4954477 4.09684082 5.61616108 7.61079907 4.0625 11.375 C3.711875 12.23738281 3.36125 13.09976562 3 13.98828125 C2.0625 16.0625 2.0625 16.0625 1.0625 17.0625 C-1.79103074 17.43072193 -4.62884782 17.73784831 -7.49243164 18.00512695 C-8.38639428 18.09125653 -9.28035692 18.17738611 -10.20140934 18.26612568 C-20.04573113 19.19712073 -29.90235121 19.97140564 -39.76138687 20.72757339 C-43.18059398 20.98982615 -46.59957707 21.25485741 -50.01852417 21.52047729 C-54.93012371 21.90178178 -59.84180826 22.28196122 -64.75357056 22.66116333 C-77.64085131 23.65634109 -90.52755313 24.65894996 -103.4140625 25.6640625 C-105.35131289 25.81510657 -105.35131289 25.81510657 -107.32769966 25.96920204 C-124.95862727 27.34515411 -142.58653981 28.75369917 -160.2109375 30.2109375 C-161.21422907 30.29387117 -162.21752064 30.37680485 -163.25121498 30.46225166 C-172.63379937 31.2385726 -182.01590385 32.02049899 -191.39741135 32.80972672 C-194.75300889 33.09168012 -198.10874895 33.37191241 -201.46451187 33.6518898 C-203.72145423 33.84100908 -205.97814445 34.03294425 -208.23483276 34.22506714 C-209.58273146 34.33776812 -210.93064132 34.45033572 -212.27856445 34.56274414 C-214.00330742 34.70855675 -214.00330742 34.70855675 -215.76289368 34.85731506 C-218.83161542 35.05565634 -221.86340316 35.09966155 -224.9375 35.0625 C-225.164375 35.660625 -225.39125 36.25875 -225.625 36.875 C-227.37926201 39.79877001 -228.80599164 40.70097463 -231.9375 42.0625 C-237.52388706 42.59453686 -241.18896381 42.33371382 -245.9375 39.0625 C-249.45693776 35.6359234 -251.25786321 32.45127984 -251.5 27.5 C-251.155825 21.87847498 -248.47305177 18.77870492 -244.8125 14.6875 C-240.64765962 12.33345979 -236.62082472 12.25023587 -231.9375 13.0625 C-231.18059372 13.56030975 -230.42368744 14.05811951 -229.6438446 14.5710144 C-219.61348968 20.09881373 -199.84165398 15.18750151 -188.76171875 14.3046875 C-186.37800447 14.11867266 -183.99425522 13.93310563 -181.61047363 13.74795532 C-175.25848305 13.25314031 -168.90705245 12.75145999 -162.55572128 12.2482605 C-157.30339102 11.83301438 -152.05074078 11.42189917 -146.79808521 11.01079178 C-112.96859521 8.3624721 -79.1437413 5.65671635 -45.32885742 2.82763672 C-43.94779527 2.71234346 -42.56673246 2.59705802 -41.18566895 2.48178101 C-38.72527695 2.27602823 -36.2649775 2.06916304 -33.80480957 1.86074829 C-10.48319769 -0.09277166 -10.48319769 -0.09277166 0 0 Z " fill="#5EB1D4" transform="translate(766.9375,1037.9375)"/>
<path d="M0 0 C5.04097983 3.60069988 8.42284454 7.74400715 9.625 13.875 C9.79885773 19.45890118 8.81164601 23.96999195 5.2734375 28.3671875 C1.17587305 32.11519669 -3.58702963 33.6283834 -9 34.375 C-14.05881734 33.62554558 -17.7225204 31.5274796 -21.375 27.875 C-24.01203112 27.68036468 -26.52399187 27.61571584 -29.16040039 27.65380859 C-29.96043771 27.66037664 -30.76047503 27.66694469 -31.5847559 27.67371178 C-41.35562639 27.8162429 -51.07390408 28.6144664 -60.80859375 29.4140625 C-62.86666564 29.57778887 -64.92478789 29.74088342 -66.98295593 29.90339661 C-72.46233428 30.33777764 -77.94098567 30.78074932 -83.41953278 31.22547531 C-89.12091365 31.68677355 -94.82293792 32.13997641 -100.52490234 32.59399414 C-109.73521494 33.32834748 -118.94514936 34.06726698 -128.15478516 34.81005859 C-139.32260173 35.71075237 -150.49100191 36.60391545 -161.65978432 37.49254608 C-175.2344828 38.57263226 -188.80893322 39.65575827 -202.3828125 40.74609375 C-203.6376091 40.84678665 -204.8924057 40.94747955 -206.18522644 41.05122375 C-213.58292117 41.64618482 -220.97943026 42.25417929 -228.375 42.875 C-224.29661174 38.48911421 -219.78889993 35.15323639 -214.875 31.75 C-214.12863281 31.22535156 -213.38226562 30.70070313 -212.61328125 30.16015625 C-210.54433833 28.71372713 -208.4769263 27.27311161 -206.375 25.875 C-205.63531479 25.36938538 -204.89562958 24.86377075 -204.13352966 24.34283447 C-200.99433621 22.67244592 -198.72293509 22.327174 -195.18969727 22.02685547 C-193.95388412 21.91600616 -192.71807098 21.80515686 -191.44480896 21.69094849 C-190.08953714 21.5826635 -188.73423519 21.4747551 -187.37890625 21.3671875 C-185.949917 21.24465238 -184.52100897 21.12116682 -183.09217834 20.99679565 C-178.52125328 20.60401479 -173.94832979 20.23851368 -169.375 19.875 C-167.88448872 19.75491475 -166.39398972 19.63467712 -164.90350342 19.51428223 C-155.67601973 18.77166496 -146.44599448 18.06470974 -137.21481323 17.36975098 C-132.18594925 16.9910879 -127.15751869 16.60686231 -122.12915039 16.22167969 C-108.65946023 15.19043081 -95.18953549 14.16235765 -81.71875 13.14550781 C-74.99404568 12.63783366 -68.26978821 12.12464888 -61.54602909 11.60460091 C-58.10471878 11.33866511 -54.6632435 11.07564767 -51.22116089 10.81988525 C-47.44762133 10.53825572 -43.67495571 10.24688182 -39.90234375 9.953125 C-38.24549561 9.83313644 -38.24549561 9.83313644 -36.55517578 9.71072388 C-35.54302002 9.6299057 -34.53086426 9.54908752 -33.48803711 9.46582031 C-32.61521591 9.3995343 -31.74239471 9.33324829 -30.84312439 9.26495361 C-25.10086909 8.35770064 -22.87936835 6.36497195 -19.375 1.875 C-14.05724814 -2.79817587 -6.36129894 -2.12043298 0 0 Z " fill="#5EB1D4" transform="translate(1041.375,441.125)"/>
<path d="M0 0 C1.15551361 -0.04219666 2.31102722 -0.08439331 3.5015564 -0.12786865 C4.54854202 -0.17355988 5.59552765 -0.2192511 6.67424011 -0.2663269 C10.41023012 0.37310515 11.47073617 1.84549588 13.68197632 4.84136963 C15.77288019 8.48492489 17.5213192 12.10748402 18.49447632 16.21636963 C15.10713685 17.34548278 12.14378946 17.5780056 8.57992554 17.86138916 C7.87209679 17.91871058 7.16426804 17.97603201 6.43498993 18.03509045 C4.05665644 18.22674618 1.67792889 18.41296533 -0.70083618 18.59918213 C-2.40499315 18.73527931 -4.10912466 18.8716956 -5.81323242 19.00840759 C-9.48856492 19.30251 -13.16408122 19.59416161 -16.8397522 19.88400269 C-21.67529394 20.26538159 -26.51049883 20.65083994 -31.3455925 21.03785419 C-52.13243611 22.70168504 -72.92179369 24.33106275 -93.714077 25.92544556 C-99.84682133 26.39636133 -105.97930865 26.87061763 -112.11181068 27.34467697 C-118.0069294 27.79975252 -123.90252866 28.24784785 -129.798563 28.69089413 C-133.47380032 28.96849362 -137.14856436 29.25200986 -140.82323074 29.53705788 C-142.52585056 29.6678473 -144.22866654 29.79611185 -145.93168259 29.92163658 C-148.26220227 30.09369635 -150.59186636 30.27470446 -152.92153931 30.45782471 C-154.22466064 30.5566243 -155.52778198 30.65542389 -156.87039185 30.75721741 C-162.31092721 31.44440951 -167.03757524 32.11271399 -170.75552368 36.34136963 C-173.79558587 39.14124631 -175.94469149 39.70745898 -180.06802368 39.84136963 C-186.41338164 39.4589097 -189.60015212 37.27216526 -193.88052368 32.65386963 C-196.18320884 27.78280488 -196.27931929 23.51450082 -195.50552368 18.21636963 C-193.20816843 13.35657967 -190.30785217 10.61753387 -185.50552368 8.21636963 C-179.53509508 7.55298867 -175.80210341 8.46214817 -170.50552368 11.21636963 C-169.84552368 11.87636963 -169.18552368 12.53636963 -168.50552368 13.21636963 C-162.45443452 13.95752821 -156.07486399 12.99626911 -150.03677368 12.39215088 C-148.07855023 12.20560968 -146.12020861 12.02030623 -144.16177368 11.83599854 C-142.56559204 11.68545013 -142.56559204 11.68545013 -140.93716431 11.53186035 C-134.55691785 10.94528711 -128.17173991 10.41650256 -121.78677368 9.88433838 C-120.73461638 9.79642406 -120.73461638 9.79642406 -119.66120338 9.7067337 C-114.44278762 9.27070641 -109.22418698 8.83692311 -104.00552368 8.40386963 C-103.23209499 8.33966576 -102.45866631 8.27546188 -101.66180038 8.20931244 C-91.99998139 7.4073687 -82.33794864 6.60802959 -72.67582035 5.80982208 C-67.22253138 5.35903915 -61.76948385 4.90541919 -56.31655884 4.45025635 C-49.83897585 3.90959691 -43.36109391 3.3727124 -36.88279152 2.84073925 C-33.5460318 2.56665342 -30.20949588 2.29035298 -26.87319946 2.01065063 C-23.18462814 1.70181091 -19.49556247 1.39969812 -15.80630493 1.09918213 C-14.74579422 1.00886215 -13.68528351 0.91854218 -12.59263611 0.82548523 C-8.39812943 0.48944568 -4.19973412 0.25921802 0 0 Z " fill="#5EB1D4" transform="translate(711.5055236816406,866.7836303710938)"/>
<path d="M0 0 C6.45700035 5.1936742 6.45700035 5.1936742 7.328125 9.609375 C7.64353872 14.34058081 7.24463914 17.54555918 4.25 21.3125 C1.37274561 24.16953948 -1.05168383 25.64746879 -5.125 26.3125 C-11.30368674 25.99291276 -11.30368674 25.99291276 -13.99887085 23.76010132 C-16.76108668 21.87941252 -18.21363037 22.06798581 -21.51806641 22.33837891 C-22.6285434 22.42074799 -23.73902039 22.50311707 -24.88314819 22.58798218 C-26.11022491 22.69558868 -27.33730164 22.80319519 -28.6015625 22.9140625 C-30.62177228 23.07038521 -32.64198349 23.22669012 -34.66223335 23.38249397 C-36.89141057 23.55725514 -39.11984272 23.73984438 -41.3482666 23.9239502 C-46.34463466 24.33440644 -51.34335857 24.70982318 -56.34277344 25.08105469 C-66.73329737 25.85509491 -77.12186701 26.65331635 -87.51016998 27.45655441 C-90.53226691 27.68999242 -93.55442344 27.92264382 -96.57659912 28.15505981 C-121.68876915 30.08672963 -146.79862169 32.03595497 -171.88818359 34.24560547 C-172.75235901 34.32040634 -173.61653442 34.39520721 -174.50689697 34.47227478 C-176.0416561 34.60528071 -177.57616647 34.7412218 -179.11029053 34.88136292 C-184.13501146 35.31443608 -189.0868278 35.3621478 -194.125 35.3125 C-195.29907021 33.04522667 -196.46439739 30.77415376 -197.625 28.5 C-197.95886719 27.85740234 -198.29273438 27.21480469 -198.63671875 26.55273438 C-200.12739084 23.61702301 -201.125 21.65123483 -201.125 18.3125 C-199.44256195 18.18214859 -199.44256195 18.18214859 -197.72613525 18.04916382 C-192.23929057 17.62402399 -186.75245728 17.19873731 -181.265625 16.7734375 C-180.2347237 16.69353828 -179.2038224 16.61363907 -178.14168167 16.53131866 C-165.52673617 15.55352826 -152.91192073 14.57409344 -140.29736328 13.59130859 C-136.74815328 13.3148476 -133.19894241 13.03839789 -129.64973068 12.76195908 C-127.26651171 12.57633 -124.88329486 12.3906736 -122.50008011 12.20499039 C-108.367533 11.10417197 -94.23435778 10.01248612 -80.09973145 8.93869019 C-73.8693376 8.46523321 -67.63934506 7.98660574 -61.40948486 7.50618172 C-56.51165232 7.12886688 -51.61336829 6.75833457 -46.71464729 6.39274597 C-43.71185511 6.16695924 -40.70960306 5.93456002 -37.70746994 5.70018768 C-35.68817452 5.54453439 -33.66826539 5.39690692 -31.64834595 5.24957275 C-30.45583221 5.15512878 -29.26331848 5.06068481 -28.03466797 4.96337891 C-26.49212845 4.84635117 -26.49212845 4.84635117 -24.91842651 4.72695923 C-21.09373562 4.15949184 -18.14551104 3.08561442 -15.0625 0.75 C-10.450695 -2.67166177 -4.96712621 -2.68224815 0 0 Z " fill="#5EB1D4" transform="translate(972.125,702.6875)"/>
<path d="M0 0 C-10.76668126 8.66146425 -23.95211336 18.55825051 -38.10327148 19.68676758 C-39.36534927 19.79139816 -40.62742706 19.89602875 -41.92774963 20.00382996 C-43.34635559 20.11334379 -44.76497068 20.22273932 -46.18359375 20.33203125 C-47.70972779 20.45550247 -49.23580317 20.57970047 -50.76182556 20.70454407 C-54.2183724 20.98579478 -57.67528744 21.26187817 -61.13250732 21.534729 C-67.53465472 22.04069838 -73.93552896 22.56198027 -80.33642578 23.08349609 C-93.95869422 24.19168247 -107.5820651 25.28590506 -121.20562744 26.37805176 C-126.41722245 26.79619337 -131.62871205 27.2156409 -136.84020329 27.63507366 C-141.86965769 28.03970072 -146.8991734 28.44356144 -151.92870903 28.84717751 C-154.32461814 29.03953149 -156.72050885 29.23211486 -159.11638069 29.42493248 C-162.42656515 29.69120962 -165.73682972 29.95646701 -169.04711914 30.22143555 C-170.03222473 30.30087906 -171.01733032 30.38032257 -172.0322876 30.46217346 C-172.92684158 30.53356537 -173.82139557 30.60495728 -174.74305725 30.67851257 C-175.52168153 30.74098521 -176.30030581 30.80345785 -177.10252476 30.8678236 C-178.39928766 30.95815492 -179.70009471 31 -181 31 C-181.33 31.99 -181.66 32.98 -182 34 C-185.75765708 35.25255236 -189.11451081 35.76715326 -193 35 C-196.87433153 32.6591037 -199.55767172 30.32698484 -201 26 C-201.53832527 20.29375217 -200.61757835 17.4444534 -197 13 C-193.72872414 10.81914943 -192.72623277 10.75112141 -188.9375 10.8125 C-187.62072266 10.82216797 -187.62072266 10.82216797 -186.27734375 10.83203125 C-184 11 -184 11 -182 12 C-172.89564527 12.4848379 -163.80709097 11.71631733 -154.7421875 10.93359375 C-153.34983642 10.8175563 -151.95743971 10.7020653 -150.56500244 10.58706665 C-147.57062352 10.33897121 -144.57651567 10.08789756 -141.58258057 9.83450317 C-134.26923719 9.21624308 -126.9542481 8.61788997 -119.63941574 8.01755333 C-117.01606149 7.80215749 -114.3927499 7.58624706 -111.7694397 7.37031555 C-91.60858816 5.71293627 -71.44324658 4.11347713 -51.27545166 2.54299927 C-47.1750479 2.2234211 -43.07493611 1.90041504 -38.97503662 1.57443237 C-34.12188249 1.18861948 -29.26828438 0.80899563 -24.41426849 0.43418503 C-22.61691717 0.29435506 -20.81973617 0.15231625 -19.02274323 0.00795364 C-16.56002162 -0.18947352 -14.09680848 -0.37883836 -11.63330078 -0.56616211 C-10.91286024 -0.62579919 -10.1924197 -0.68543627 -9.45014763 -0.74688053 C-6.09878006 -0.99335969 -3.20323279 -1.10870766 0 0 Z " fill="#5EB1D4" transform="translate(745,1084)"/>
<path d="M0 0 C4.1376754 2.3681872 7.01326041 5.39654817 9.5 9.4375 C10.5461356 14.79894496 10.82219215 18.41651882 8.3125 23.25 C5.30901104 26.8217166 1.93908413 30.57316206 -2.8828125 31.2734375 C-7.44308964 31.48000058 -10.18525972 31.20528118 -13.9375 28.5 C-22.01493121 22.8390999 -34.84320809 26.45039539 -44.20703125 27.2421875 C-45.77908223 27.37223791 -47.35116027 27.50196149 -48.92326355 27.63137817 C-52.21231991 27.90296721 -55.50113987 28.17720786 -58.78979492 28.45361328 C-62.94004093 28.80240734 -67.0906508 29.14659782 -71.24142647 29.48902512 C-93.49796583 31.30141879 -93.49796583 31.30141879 -115.72407532 33.44796753 C-120.50921331 33.93420841 -125.1892908 34.06997148 -130 34 C-127.47900846 31.47900846 -125.16258805 30.74822955 -121.83203125 29.4609375 C-121.20133224 29.21638824 -120.57063324 28.97183899 -119.92082214 28.71987915 C-118.57084613 28.19788856 -117.21984332 27.67854712 -115.86791992 27.16162109 C-113.8903989 26.40481236 -111.9166665 25.6388105 -109.94335938 24.87109375 C-106.4368284 23.51233748 -102.91261387 22.20501374 -99.38500977 20.90213013 C-96.84869089 19.94276732 -94.33838558 18.9277573 -91.82421875 17.91186523 C-76.46667763 11.90767411 -61.7473243 10.30578632 -45.375 9.3125 C-41.65641613 9.07677093 -37.93955858 8.83149537 -34.22354126 8.55815125 C-31.93795641 8.39068546 -29.65066333 8.24468671 -27.3621521 8.12361145 C-21.16215327 7.72186027 -21.16215327 7.72186027 -15.95556641 4.54370117 C-15.31022949 3.70427979 -14.66489258 2.8648584 -14 2 C-9.50084616 -0.99943589 -5.26309925 -0.94649741 0 0 Z " fill="#5FB1D4" transform="translate(1029,401)"/>
</svg>
